<svg xmlns="http://www.w3.org/2000/svg" viewBox="0 0 64 64">
<defs><radialGradient id="g"><stop offset="0" stop-color="#fff" stop-opacity=".3"/><stop offset="1" stop-color="#fff" stop-opacity="0"/></radialGradient></defs>
<rect width="64" height="64" rx="14" fill="#000"/>
<circle cx="32" cy="32" r="27" fill="url(#g)"/>
<circle cx="32" cy="32" r="13.5" fill="#000"/>
<g fill="none" stroke-width="7"><path d="M32.00 15.00A17 17 0 0 1 32.71 15.01" stroke="hsl(0.0 100% 55%)"/><path d="M32.45 15.01A17 17 0 0 1 33.16 15.04" stroke="hsl(1.5 100% 55%)"/><path d="M32.89 15.02A17 17 0 0 1 33.60 15.08" stroke="hsl(3.0 100% 55%)"/><path d="M33.33 15.05A17 17 0 0 1 34.04 15.12" stroke="hsl(4.5 100% 55%)"/><path d="M33.78 15.09A17 17 0 0 1 34.48 15.18" stroke="hsl(6.0 100% 55%)"/><path d="M34.22 15.15A17 17 0 0 1 34.92 15.25" stroke="hsl(7.5 100% 55%)"/><path d="M34.66 15.21A17 17 0 0 1 35.36 15.34" stroke="hsl(9.0 100% 55%)"/><path d="M35.10 15.28A17 17 0 0 1 35.80 15.43" stroke="hsl(10.5 100% 55%)"/><path d="M35.53 15.37A17 17 0 0 1 36.23 15.53" stroke="hsl(12.0 100% 55%)"/><path d="M35.97 15.47A17 17 0 0 1 36.66 15.65" stroke="hsl(13.5 100% 55%)"/><path d="M36.40 15.58A17 17 0 0 1 37.08 15.78" stroke="hsl(15.0 100% 55%)"/><path d="M36.83 15.70A17 17 0 0 1 37.51 15.92" stroke="hsl(16.5 100% 55%)"/><path d="M37.25 15.83A17 17 0 0 1 37.93 16.07" stroke="hsl(18.0 100% 55%)"/><path d="M37.67 15.98A17 17 0 0 1 38.34 16.23" stroke="hsl(19.5 100% 55%)"/><path d="M38.09 16.13A17 17 0 0 1 38.75 16.40" stroke="hsl(21.0 100% 55%)"/><path d="M38.51 16.29A17 17 0 0 1 39.16 16.58" stroke="hsl(22.5 100% 55%)"/><path d="M38.91 16.47A17 17 0 0 1 39.56 16.77" stroke="hsl(24.0 100% 55%)"/><path d="M39.32 16.66A17 17 0 0 1 39.95 16.98" stroke="hsl(25.5 100% 55%)"/><path d="M39.72 16.85A17 17 0 0 1 40.35 17.19" stroke="hsl(27.0 100% 55%)"/><path d="M40.11 17.06A17 17 0 0 1 40.73 17.41" stroke="hsl(28.5 100% 55%)"/><path d="M40.50 17.28A17 17 0 0 1 41.11 17.65" stroke="hsl(30.0 100% 55%)"/><path d="M40.88 17.51A17 17 0 0 1 41.48 17.89" stroke="hsl(31.5 100% 55%)"/><path d="M41.26 17.74A17 17 0 0 1 41.85 18.14" stroke="hsl(33.0 100% 55%)"/><path d="M41.63 17.99A17 17 0 0 1 42.21 18.41" stroke="hsl(34.5 100% 55%)"/><path d="M41.99 18.25A17 17 0 0 1 42.56 18.68" stroke="hsl(36.0 100% 55%)"/><path d="M42.35 18.51A17 17 0 0 1 42.90 18.96" stroke="hsl(37.5 100% 55%)"/><path d="M42.70 18.79A17 17 0 0 1 43.24 19.25" stroke="hsl(39.0 100% 55%)"/><path d="M43.04 19.07A17 17 0 0 1 43.57 19.55" stroke="hsl(40.5 100% 55%)"/><path d="M43.38 19.37A17 17 0 0 1 43.89 19.85" stroke="hsl(42.0 100% 55%)"/><path d="M43.70 19.67A17 17 0 0 1 44.21 20.17" stroke="hsl(43.5 100% 55%)"/><path d="M44.02 19.98A17 17 0 0 1 44.51 20.49" stroke="hsl(45.0 100% 55%)"/><path d="M44.33 20.30A17 17 0 0 1 44.81 20.82" stroke="hsl(46.5 100% 55%)"/><path d="M44.63 20.62A17 17 0 0 1 45.10 21.16" stroke="hsl(48.0 100% 55%)"/><path d="M44.93 20.96A17 17 0 0 1 45.38 21.51" stroke="hsl(49.5 100% 55%)"/><path d="M45.21 21.30A17 17 0 0 1 45.65 21.86" stroke="hsl(51.0 100% 55%)"/><path d="M45.49 21.65A17 17 0 0 1 45.91 22.22" stroke="hsl(52.5 100% 55%)"/><path d="M45.75 22.01A17 17 0 0 1 46.16 22.59" stroke="hsl(54.0 100% 55%)"/><path d="M46.01 22.37A17 17 0 0 1 46.40 22.97" stroke="hsl(55.5 100% 55%)"/><path d="M46.26 22.74A17 17 0 0 1 46.63 23.35" stroke="hsl(57.0 100% 55%)"/><path d="M46.49 23.12A17 17 0 0 1 46.85 23.73" stroke="hsl(58.5 100% 55%)"/><path d="M46.72 23.50A17 17 0 0 1 47.07 24.12" stroke="hsl(60.0 100% 55%)"/><path d="M46.94 23.89A17 17 0 0 1 47.27 24.52" stroke="hsl(61.5 100% 55%)"/><path d="M47.15 24.28A17 17 0 0 1 47.46 24.92" stroke="hsl(63.0 100% 55%)"/><path d="M47.34 24.68A17 17 0 0 1 47.64 25.33" stroke="hsl(64.5 100% 55%)"/><path d="M47.53 25.09A17 17 0 0 1 47.81 25.74" stroke="hsl(66.0 100% 55%)"/><path d="M47.71 25.49A17 17 0 0 1 47.96 26.16" stroke="hsl(67.5 100% 55%)"/><path d="M47.87 25.91A17 17 0 0 1 48.11 26.58" stroke="hsl(69.0 100% 55%)"/><path d="M48.02 26.33A17 17 0 0 1 48.25 27.00" stroke="hsl(70.5 100% 55%)"/><path d="M48.17 26.75A17 17 0 0 1 48.37 27.43" stroke="hsl(72.0 100% 55%)"/><path d="M48.30 27.17A17 17 0 0 1 48.49 27.86" stroke="hsl(73.5 100% 55%)"/><path d="M48.42 27.60A17 17 0 0 1 48.59 28.29" stroke="hsl(75.0 100% 55%)"/><path d="M48.53 28.03A17 17 0 0 1 48.68 28.73" stroke="hsl(76.5 100% 55%)"/><path d="M48.63 28.47A17 17 0 0 1 48.76 29.16" stroke="hsl(78.0 100% 55%)"/><path d="M48.72 28.90A17 17 0 0 1 48.83 29.60" stroke="hsl(79.5 100% 55%)"/><path d="M48.79 29.34A17 17 0 0 1 48.89 30.05" stroke="hsl(81.0 100% 55%)"/><path d="M48.85 29.78A17 17 0 0 1 48.93 30.49" stroke="hsl(82.5 100% 55%)"/><path d="M48.91 30.22A17 17 0 0 1 48.97 30.93" stroke="hsl(84.0 100% 55%)"/><path d="M48.95 30.67A17 17 0 0 1 48.99 31.38" stroke="hsl(85.5 100% 55%)"/><path d="M48.98 31.11A17 17 0 0 1 49.00 31.82" stroke="hsl(87.0 100% 55%)"/><path d="M48.99 31.55A17 17 0 0 1 49.00 32.27" stroke="hsl(88.5 100% 55%)"/><path d="M49.00 32.00A17 17 0 0 1 48.99 32.71" stroke="hsl(90.0 100% 55%)"/><path d="M48.99 32.45A17 17 0 0 1 48.96 33.16" stroke="hsl(91.5 100% 55%)"/><path d="M48.98 32.89A17 17 0 0 1 48.92 33.60" stroke="hsl(93.0 100% 55%)"/><path d="M48.95 33.33A17 17 0 0 1 48.88 34.04" stroke="hsl(94.5 100% 55%)"/><path d="M48.91 33.78A17 17 0 0 1 48.82 34.48" stroke="hsl(96.0 100% 55%)"/><path d="M48.85 34.22A17 17 0 0 1 48.75 34.92" stroke="hsl(97.5 100% 55%)"/><path d="M48.79 34.66A17 17 0 0 1 48.66 35.36" stroke="hsl(99.0 100% 55%)"/><path d="M48.72 35.10A17 17 0 0 1 48.57 35.80" stroke="hsl(100.5 100% 55%)"/><path d="M48.63 35.53A17 17 0 0 1 48.47 36.23" stroke="hsl(102.0 100% 55%)"/><path d="M48.53 35.97A17 17 0 0 1 48.35 36.66" stroke="hsl(103.5 100% 55%)"/><path d="M48.42 36.40A17 17 0 0 1 48.22 37.08" stroke="hsl(105.0 100% 55%)"/><path d="M48.30 36.83A17 17 0 0 1 48.08 37.51" stroke="hsl(106.5 100% 55%)"/><path d="M48.17 37.25A17 17 0 0 1 47.93 37.93" stroke="hsl(108.0 100% 55%)"/><path d="M48.02 37.67A17 17 0 0 1 47.77 38.34" stroke="hsl(109.5 100% 55%)"/><path d="M47.87 38.09A17 17 0 0 1 47.60 38.75" stroke="hsl(111.0 100% 55%)"/><path d="M47.71 38.51A17 17 0 0 1 47.42 39.16" stroke="hsl(112.5 100% 55%)"/><path d="M47.53 38.91A17 17 0 0 1 47.23 39.56" stroke="hsl(114.0 100% 55%)"/><path d="M47.34 39.32A17 17 0 0 1 47.02 39.95" stroke="hsl(115.5 100% 55%)"/><path d="M47.15 39.72A17 17 0 0 1 46.81 40.35" stroke="hsl(117.0 100% 55%)"/><path d="M46.94 40.11A17 17 0 0 1 46.59 40.73" stroke="hsl(118.5 100% 55%)"/><path d="M46.72 40.50A17 17 0 0 1 46.35 41.11" stroke="hsl(120.0 100% 55%)"/><path d="M46.49 40.88A17 17 0 0 1 46.11 41.48" stroke="hsl(121.5 100% 55%)"/><path d="M46.26 41.26A17 17 0 0 1 45.86 41.85" stroke="hsl(123.0 100% 55%)"/><path d="M46.01 41.63A17 17 0 0 1 45.59 42.21" stroke="hsl(124.5 100% 55%)"/><path d="M45.75 41.99A17 17 0 0 1 45.32 42.56" stroke="hsl(126.0 100% 55%)"/><path d="M45.49 42.35A17 17 0 0 1 45.04 42.90" stroke="hsl(127.5 100% 55%)"/><path d="M45.21 42.70A17 17 0 0 1 44.75 43.24" stroke="hsl(129.0 100% 55%)"/><path d="M44.93 43.04A17 17 0 0 1 44.45 43.57" stroke="hsl(130.5 100% 55%)"/><path d="M44.63 43.38A17 17 0 0 1 44.15 43.89" stroke="hsl(132.0 100% 55%)"/><path d="M44.33 43.70A17 17 0 0 1 43.83 44.21" stroke="hsl(133.5 100% 55%)"/><path d="M44.02 44.02A17 17 0 0 1 43.51 44.51" stroke="hsl(135.0 100% 55%)"/><path d="M43.70 44.33A17 17 0 0 1 43.18 44.81" stroke="hsl(136.5 100% 55%)"/><path d="M43.38 44.63A17 17 0 0 1 42.84 45.10" stroke="hsl(138.0 100% 55%)"/><path d="M43.04 44.93A17 17 0 0 1 42.49 45.38" stroke="hsl(139.5 100% 55%)"/><path d="M42.70 45.21A17 17 0 0 1 42.14 45.65" stroke="hsl(141.0 100% 55%)"/><path d="M42.35 45.49A17 17 0 0 1 41.78 45.91" stroke="hsl(142.5 100% 55%)"/><path d="M41.99 45.75A17 17 0 0 1 41.41 46.16" stroke="hsl(144.0 100% 55%)"/><path d="M41.63 46.01A17 17 0 0 1 41.03 46.40" stroke="hsl(145.5 100% 55%)"/><path d="M41.26 46.26A17 17 0 0 1 40.65 46.63" stroke="hsl(147.0 100% 55%)"/><path d="M40.88 46.49A17 17 0 0 1 40.27 46.85" stroke="hsl(148.5 100% 55%)"/><path d="M40.50 46.72A17 17 0 0 1 39.88 47.07" stroke="hsl(150.0 100% 55%)"/><path d="M40.11 46.94A17 17 0 0 1 39.48 47.27" stroke="hsl(151.5 100% 55%)"/><path d="M39.72 47.15A17 17 0 0 1 39.08 47.46" stroke="hsl(153.0 100% 55%)"/><path d="M39.32 47.34A17 17 0 0 1 38.67 47.64" stroke="hsl(154.5 100% 55%)"/><path d="M38.91 47.53A17 17 0 0 1 38.26 47.81" stroke="hsl(156.0 100% 55%)"/><path d="M38.51 47.71A17 17 0 0 1 37.84 47.96" stroke="hsl(157.5 100% 55%)"/><path d="M38.09 47.87A17 17 0 0 1 37.42 48.11" stroke="hsl(159.0 100% 55%)"/><path d="M37.67 48.02A17 17 0 0 1 37.00 48.25" stroke="hsl(160.5 100% 55%)"/><path d="M37.25 48.17A17 17 0 0 1 36.57 48.37" stroke="hsl(162.0 100% 55%)"/><path d="M36.83 48.30A17 17 0 0 1 36.14 48.49" stroke="hsl(163.5 100% 55%)"/><path d="M36.40 48.42A17 17 0 0 1 35.71 48.59" stroke="hsl(165.0 100% 55%)"/><path d="M35.97 48.53A17 17 0 0 1 35.27 48.68" stroke="hsl(166.5 100% 55%)"/><path d="M35.53 48.63A17 17 0 0 1 34.84 48.76" stroke="hsl(168.0 100% 55%)"/><path d="M35.10 48.72A17 17 0 0 1 34.40 48.83" stroke="hsl(169.5 100% 55%)"/><path d="M34.66 48.79A17 17 0 0 1 33.95 48.89" stroke="hsl(171.0 100% 55%)"/><path d="M34.22 48.85A17 17 0 0 1 33.51 48.93" stroke="hsl(172.5 100% 55%)"/><path d="M33.78 48.91A17 17 0 0 1 33.07 48.97" stroke="hsl(174.0 100% 55%)"/><path d="M33.33 48.95A17 17 0 0 1 32.62 48.99" stroke="hsl(175.5 100% 55%)"/><path d="M32.89 48.98A17 17 0 0 1 32.18 49.00" stroke="hsl(177.0 100% 55%)"/><path d="M32.45 48.99A17 17 0 0 1 31.73 49.00" stroke="hsl(178.5 100% 55%)"/><path d="M32.00 49.00A17 17 0 0 1 31.29 48.99" stroke="hsl(180.0 100% 55%)"/><path d="M31.55 48.99A17 17 0 0 1 30.84 48.96" stroke="hsl(181.5 100% 55%)"/><path d="M31.11 48.98A17 17 0 0 1 30.40 48.92" stroke="hsl(183.0 100% 55%)"/><path d="M30.67 48.95A17 17 0 0 1 29.96 48.88" stroke="hsl(184.5 100% 55%)"/><path d="M30.22 48.91A17 17 0 0 1 29.52 48.82" stroke="hsl(186.0 100% 55%)"/><path d="M29.78 48.85A17 17 0 0 1 29.08 48.75" stroke="hsl(187.5 100% 55%)"/><path d="M29.34 48.79A17 17 0 0 1 28.64 48.66" stroke="hsl(189.0 100% 55%)"/><path d="M28.90 48.72A17 17 0 0 1 28.20 48.57" stroke="hsl(190.5 100% 55%)"/><path d="M28.47 48.63A17 17 0 0 1 27.77 48.47" stroke="hsl(192.0 100% 55%)"/><path d="M28.03 48.53A17 17 0 0 1 27.34 48.35" stroke="hsl(193.5 100% 55%)"/><path d="M27.60 48.42A17 17 0 0 1 26.92 48.22" stroke="hsl(195.0 100% 55%)"/><path d="M27.17 48.30A17 17 0 0 1 26.49 48.08" stroke="hsl(196.5 100% 55%)"/><path d="M26.75 48.17A17 17 0 0 1 26.07 47.93" stroke="hsl(198.0 100% 55%)"/><path d="M26.33 48.02A17 17 0 0 1 25.66 47.77" stroke="hsl(199.5 100% 55%)"/><path d="M25.91 47.87A17 17 0 0 1 25.25 47.60" stroke="hsl(201.0 100% 55%)"/><path d="M25.49 47.71A17 17 0 0 1 24.84 47.42" stroke="hsl(202.5 100% 55%)"/><path d="M25.09 47.53A17 17 0 0 1 24.44 47.23" stroke="hsl(204.0 100% 55%)"/><path d="M24.68 47.34A17 17 0 0 1 24.05 47.02" stroke="hsl(205.5 100% 55%)"/><path d="M24.28 47.15A17 17 0 0 1 23.65 46.81" stroke="hsl(207.0 100% 55%)"/><path d="M23.89 46.94A17 17 0 0 1 23.27 46.59" stroke="hsl(208.5 100% 55%)"/><path d="M23.50 46.72A17 17 0 0 1 22.89 46.35" stroke="hsl(210.0 100% 55%)"/><path d="M23.12 46.49A17 17 0 0 1 22.52 46.11" stroke="hsl(211.5 100% 55%)"/><path d="M22.74 46.26A17 17 0 0 1 22.15 45.86" stroke="hsl(213.0 100% 55%)"/><path d="M22.37 46.01A17 17 0 0 1 21.79 45.59" stroke="hsl(214.5 100% 55%)"/><path d="M22.01 45.75A17 17 0 0 1 21.44 45.32" stroke="hsl(216.0 100% 55%)"/><path d="M21.65 45.49A17 17 0 0 1 21.10 45.04" stroke="hsl(217.5 100% 55%)"/><path d="M21.30 45.21A17 17 0 0 1 20.76 44.75" stroke="hsl(219.0 100% 55%)"/><path d="M20.96 44.93A17 17 0 0 1 20.43 44.45" stroke="hsl(220.5 100% 55%)"/><path d="M20.62 44.63A17 17 0 0 1 20.11 44.15" stroke="hsl(222.0 100% 55%)"/><path d="M20.30 44.33A17 17 0 0 1 19.79 43.83" stroke="hsl(223.5 100% 55%)"/><path d="M19.98 44.02A17 17 0 0 1 19.49 43.51" stroke="hsl(225.0 100% 55%)"/><path d="M19.67 43.70A17 17 0 0 1 19.19 43.18" stroke="hsl(226.5 100% 55%)"/><path d="M19.37 43.38A17 17 0 0 1 18.90 42.84" stroke="hsl(228.0 100% 55%)"/><path d="M19.07 43.04A17 17 0 0 1 18.62 42.49" stroke="hsl(229.5 100% 55%)"/><path d="M18.79 42.70A17 17 0 0 1 18.35 42.14" stroke="hsl(231.0 100% 55%)"/><path d="M18.51 42.35A17 17 0 0 1 18.09 41.78" stroke="hsl(232.5 100% 55%)"/><path d="M18.25 41.99A17 17 0 0 1 17.84 41.41" stroke="hsl(234.0 100% 55%)"/><path d="M17.99 41.63A17 17 0 0 1 17.60 41.03" stroke="hsl(235.5 100% 55%)"/><path d="M17.74 41.26A17 17 0 0 1 17.37 40.65" stroke="hsl(237.0 100% 55%)"/><path d="M17.51 40.88A17 17 0 0 1 17.15 40.27" stroke="hsl(238.5 100% 55%)"/><path d="M17.28 40.50A17 17 0 0 1 16.93 39.88" stroke="hsl(240.0 100% 55%)"/><path d="M17.06 40.11A17 17 0 0 1 16.73 39.48" stroke="hsl(241.5 100% 55%)"/><path d="M16.85 39.72A17 17 0 0 1 16.54 39.08" stroke="hsl(243.0 100% 55%)"/><path d="M16.66 39.32A17 17 0 0 1 16.36 38.67" stroke="hsl(244.5 100% 55%)"/><path d="M16.47 38.91A17 17 0 0 1 16.19 38.26" stroke="hsl(246.0 100% 55%)"/><path d="M16.29 38.51A17 17 0 0 1 16.04 37.84" stroke="hsl(247.5 100% 55%)"/><path d="M16.13 38.09A17 17 0 0 1 15.89 37.42" stroke="hsl(249.0 100% 55%)"/><path d="M15.98 37.67A17 17 0 0 1 15.75 37.00" stroke="hsl(250.5 100% 55%)"/><path d="M15.83 37.25A17 17 0 0 1 15.63 36.57" stroke="hsl(252.0 100% 55%)"/><path d="M15.70 36.83A17 17 0 0 1 15.51 36.14" stroke="hsl(253.5 100% 55%)"/><path d="M15.58 36.40A17 17 0 0 1 15.41 35.71" stroke="hsl(255.0 100% 55%)"/><path d="M15.47 35.97A17 17 0 0 1 15.32 35.27" stroke="hsl(256.5 100% 55%)"/><path d="M15.37 35.53A17 17 0 0 1 15.24 34.84" stroke="hsl(258.0 100% 55%)"/><path d="M15.28 35.10A17 17 0 0 1 15.17 34.40" stroke="hsl(259.5 100% 55%)"/><path d="M15.21 34.66A17 17 0 0 1 15.11 33.95" stroke="hsl(261.0 100% 55%)"/><path d="M15.15 34.22A17 17 0 0 1 15.07 33.51" stroke="hsl(262.5 100% 55%)"/><path d="M15.09 33.78A17 17 0 0 1 15.03 33.07" stroke="hsl(264.0 100% 55%)"/><path d="M15.05 33.33A17 17 0 0 1 15.01 32.62" stroke="hsl(265.5 100% 55%)"/><path d="M15.02 32.89A17 17 0 0 1 15.00 32.18" stroke="hsl(267.0 100% 55%)"/><path d="M15.01 32.45A17 17 0 0 1 15.00 31.73" stroke="hsl(268.5 100% 55%)"/><path d="M15.00 32.00A17 17 0 0 1 15.01 31.29" stroke="hsl(270.0 100% 55%)"/><path d="M15.01 31.55A17 17 0 0 1 15.04 30.84" stroke="hsl(271.5 100% 55%)"/><path d="M15.02 31.11A17 17 0 0 1 15.08 30.40" stroke="hsl(273.0 100% 55%)"/><path d="M15.05 30.67A17 17 0 0 1 15.12 29.96" stroke="hsl(274.5 100% 55%)"/><path d="M15.09 30.22A17 17 0 0 1 15.18 29.52" stroke="hsl(276.0 100% 55%)"/><path d="M15.15 29.78A17 17 0 0 1 15.25 29.08" stroke="hsl(277.5 100% 55%)"/><path d="M15.21 29.34A17 17 0 0 1 15.34 28.64" stroke="hsl(279.0 100% 55%)"/><path d="M15.28 28.90A17 17 0 0 1 15.43 28.20" stroke="hsl(280.5 100% 55%)"/><path d="M15.37 28.47A17 17 0 0 1 15.53 27.77" stroke="hsl(282.0 100% 55%)"/><path d="M15.47 28.03A17 17 0 0 1 15.65 27.34" stroke="hsl(283.5 100% 55%)"/><path d="M15.58 27.60A17 17 0 0 1 15.78 26.92" stroke="hsl(285.0 100% 55%)"/><path d="M15.70 27.17A17 17 0 0 1 15.92 26.49" stroke="hsl(286.5 100% 55%)"/><path d="M15.83 26.75A17 17 0 0 1 16.07 26.07" stroke="hsl(288.0 100% 55%)"/><path d="M15.98 26.33A17 17 0 0 1 16.23 25.66" stroke="hsl(289.5 100% 55%)"/><path d="M16.13 25.91A17 17 0 0 1 16.40 25.25" stroke="hsl(291.0 100% 55%)"/><path d="M16.29 25.49A17 17 0 0 1 16.58 24.84" stroke="hsl(292.5 100% 55%)"/><path d="M16.47 25.09A17 17 0 0 1 16.77 24.44" stroke="hsl(294.0 100% 55%)"/><path d="M16.66 24.68A17 17 0 0 1 16.98 24.05" stroke="hsl(295.5 100% 55%)"/><path d="M16.85 24.28A17 17 0 0 1 17.19 23.65" stroke="hsl(297.0 100% 55%)"/><path d="M17.06 23.89A17 17 0 0 1 17.41 23.27" stroke="hsl(298.5 100% 55%)"/><path d="M17.28 23.50A17 17 0 0 1 17.65 22.89" stroke="hsl(300.0 100% 55%)"/><path d="M17.51 23.12A17 17 0 0 1 17.89 22.52" stroke="hsl(301.5 100% 55%)"/><path d="M17.74 22.74A17 17 0 0 1 18.14 22.15" stroke="hsl(303.0 100% 55%)"/><path d="M17.99 22.37A17 17 0 0 1 18.41 21.79" stroke="hsl(304.5 100% 55%)"/><path d="M18.25 22.01A17 17 0 0 1 18.68 21.44" stroke="hsl(306.0 100% 55%)"/><path d="M18.51 21.65A17 17 0 0 1 18.96 21.10" stroke="hsl(307.5 100% 55%)"/><path d="M18.79 21.30A17 17 0 0 1 19.25 20.76" stroke="hsl(309.0 100% 55%)"/><path d="M19.07 20.96A17 17 0 0 1 19.55 20.43" stroke="hsl(310.5 100% 55%)"/><path d="M19.37 20.62A17 17 0 0 1 19.85 20.11" stroke="hsl(312.0 100% 55%)"/><path d="M19.67 20.30A17 17 0 0 1 20.17 19.79" stroke="hsl(313.5 100% 55%)"/><path d="M19.98 19.98A17 17 0 0 1 20.49 19.49" stroke="hsl(315.0 100% 55%)"/><path d="M20.30 19.67A17 17 0 0 1 20.82 19.19" stroke="hsl(316.5 100% 55%)"/><path d="M20.62 19.37A17 17 0 0 1 21.16 18.90" stroke="hsl(318.0 100% 55%)"/><path d="M20.96 19.07A17 17 0 0 1 21.51 18.62" stroke="hsl(319.5 100% 55%)"/><path d="M21.30 18.79A17 17 0 0 1 21.86 18.35" stroke="hsl(321.0 100% 55%)"/><path d="M21.65 18.51A17 17 0 0 1 22.22 18.09" stroke="hsl(322.5 100% 55%)"/><path d="M22.01 18.25A17 17 0 0 1 22.59 17.84" stroke="hsl(324.0 100% 55%)"/><path d="M22.37 17.99A17 17 0 0 1 22.97 17.60" stroke="hsl(325.5 100% 55%)"/><path d="M22.74 17.74A17 17 0 0 1 23.35 17.37" stroke="hsl(327.0 100% 55%)"/><path d="M23.12 17.51A17 17 0 0 1 23.73 17.15" stroke="hsl(328.5 100% 55%)"/><path d="M23.50 17.28A17 17 0 0 1 24.12 16.93" stroke="hsl(330.0 100% 55%)"/><path d="M23.89 17.06A17 17 0 0 1 24.52 16.73" stroke="hsl(331.5 100% 55%)"/><path d="M24.28 16.85A17 17 0 0 1 24.92 16.54" stroke="hsl(333.0 100% 55%)"/><path d="M24.68 16.66A17 17 0 0 1 25.33 16.36" stroke="hsl(334.5 100% 55%)"/><path d="M25.09 16.47A17 17 0 0 1 25.74 16.19" stroke="hsl(336.0 100% 55%)"/><path d="M25.49 16.29A17 17 0 0 1 26.16 16.04" stroke="hsl(337.5 100% 55%)"/><path d="M25.91 16.13A17 17 0 0 1 26.58 15.89" stroke="hsl(339.0 100% 55%)"/><path d="M26.33 15.98A17 17 0 0 1 27.00 15.75" stroke="hsl(340.5 100% 55%)"/><path d="M26.75 15.83A17 17 0 0 1 27.43 15.63" stroke="hsl(342.0 100% 55%)"/><path d="M27.17 15.70A17 17 0 0 1 27.86 15.51" stroke="hsl(343.5 100% 55%)"/><path d="M27.60 15.58A17 17 0 0 1 28.29 15.41" stroke="hsl(345.0 100% 55%)"/><path d="M28.03 15.47A17 17 0 0 1 28.73 15.32" stroke="hsl(346.5 100% 55%)"/><path d="M28.47 15.37A17 17 0 0 1 29.16 15.24" stroke="hsl(348.0 100% 55%)"/><path d="M28.90 15.28A17 17 0 0 1 29.60 15.17" stroke="hsl(349.5 100% 55%)"/><path d="M29.34 15.21A17 17 0 0 1 30.05 15.11" stroke="hsl(351.0 100% 55%)"/><path d="M29.78 15.15A17 17 0 0 1 30.49 15.07" stroke="hsl(352.5 100% 55%)"/><path d="M30.22 15.09A17 17 0 0 1 30.93 15.03" stroke="hsl(354.0 100% 55%)"/><path d="M30.67 15.05A17 17 0 0 1 31.38 15.01" stroke="hsl(355.5 100% 55%)"/><path d="M31.11 15.02A17 17 0 0 1 31.82 15.00" stroke="hsl(357.0 100% 55%)"/><path d="M31.55 15.01A17 17 0 0 1 32.27 15.00" stroke="hsl(358.5 100% 55%)"/></g>
</svg>
